Coordinates
version=1
nRows=8
nColumns=33
inDegrees=yes

Units are S.I. units (second, meters, Newtons, ...)
Angles are in degrees.

endheader
time	ground_thorax_rot_x	ground_thorax_rot_y	ground_thorax_rot_z	ground_thorax_tx	ground_thorax_ty	ground_thorax_tz	clav_prot_r	clav_elev_r	scapula_abduction_r	scapula_elevation_r	scapula_upward_rot_r	scapula_winging_r	shoulder_elv_r	plane_of_elev_r	axial_rot_r	elbow_flexion_r	pro_sup_r	wrist_flex_r	wrist_dev_r	clav_prot_l	clav_elev_l	scapula_abduction_l	scapula_elevation_l	scapula_upward_rot_l	scapula_winging_l	shoulder_elv_l	plane_of_elev_l	axial_rot_l	elbow_flexion_l	pro_sup_l	wrist_flex_l	wrist_dev_l
      9.03000000	    -29.42792434	    -25.83906563	     37.48704444	    -66.14310592	    773.29222221	      6.76680030	     10.20755640	    -45.00000000	     40.65473783	    -45.00000000	    -45.00000000	  -2613.82015411	  -2631.40677442	    148.44489494	    179.99999979	   1801.63645436	     54.73840157	     20.53327547	     15.79736686	     15.92573462	     38.40226783	    -35.81169059	    -45.00000000	    -45.00000000	    436.79059806	  -2981.47431251	    134.61415640	   -165.88681027	      3.07432682	     29.21861202	     13.60281374	    -19.19925709
      9.04000000	    -29.29697407	    -25.92160398	     37.72392863	    -66.24987487	    773.48210385	      6.84498472	     10.37506121	    -45.00000000	     40.73086790	    -45.00000000	    -45.00000000	  -2613.99717648	  -2631.45263430	    148.44700513	    179.99999979	   1801.67291875	     55.28317642	     20.79937923	     15.65829942	     16.08016677	     38.51613437	    -35.72812206	    -45.00000000	    -45.00000000	    436.73569337	  -2981.40501014	    134.65758372	   -165.31048605	      2.97263255	     29.79401488	     13.90791274	    -19.30579627
      9.05000000	    -29.49356883	    -25.66537453	     37.38761673	    -66.66214636	    773.78407618	      6.93451805	     10.32379639	    -45.00000000	     40.73383980	    -45.00000000	    -45.00000000	  -2613.97370889	  -2631.42747115	    148.29431696	    179.99999979	   1801.83908362	     55.65636680	     20.79047479	     15.60575111	     15.86602056	     38.09851217	    -35.93923491	    -45.00000000	    -45.00000000	    437.07037691	  -2981.37232969	    134.22089891	   -164.88794428	      2.98514768	     30.16347658	     13.62720031	    -19.41279834
      9.06000000	    -29.48450226	    -25.54114853	     37.35330816	    -67.38330095	    774.19377590	      7.03278702	     10.26543387	    -45.00000000	     40.74891926	    -45.00000000	    -45.00000000	  -2614.05164987	  -2631.32300176	    148.26359454	    179.99999979	   1801.94454041	     55.80580222	     21.02105996	     15.54732000	     15.96975980	     38.47452710	    -36.01108641	    -45.00000000	    -45.00000000	    436.97830259	  -2981.33258602	    134.32836675	   -164.44156144	      3.08822591	     30.42064980	     13.75124660	    -19.53053584
      9.07000000	    -29.71251580	    -25.46290324	     37.21700634	    -68.40332829	    774.70374976	      7.13504555	     10.28253657	    -45.00000000	     40.69728673	    -45.00000000	    -45.00000000	  -2613.96681983	  -2631.36774972	    148.32093179	    179.99999979	   1802.01042494	     55.88927207	     21.02820780	     15.52313099	     15.94810024	     38.37666247	    -36.11549127	    -45.00000000	    -45.00000000	    437.08013779	  -2980.96737396	    134.27065382	   -164.02400644	      3.04219512	     30.54430581	     13.59696466	    -19.57215506
      9.08000000	    -29.80008718	    -25.27414593	     37.00660415	    -69.72931221	    775.31508101	      7.24068658	     10.28952864	    -45.00000000	     40.66229203	    -45.00000000	    -45.00000000	  -2613.99307797	  -2631.10181286	    148.23278816	    179.99999979	   1802.18962474	     55.80439585	     21.15045000	     15.48878928	     16.01299337	     38.60423265	    -36.13093593	    -45.00000000	    -45.00000000	    437.10885264	  -2980.76922322	    134.22548072	   -163.59579506	      3.19759239	     30.51971678	     13.57656513	    -19.65392286
      9.09000000	    -29.97046458	    -25.04913467	     36.72528743	    -71.35043205	    776.02449368	      7.34532070	     10.27938854	    -45.00000000	     40.69724165	    -45.00000000	    -45.00000000	  -2614.04521721	  -2630.92488702	    148.11816367	    179.99999979	   1802.42270549	     55.61137954	     21.27018957	     15.47080705	     16.02019187	     38.65824746	    -36.26820815	    -45.00000000	    -45.00000000	    437.30624790	  -2980.55352799	    134.12370468	   -163.19437730	      3.33686641	     30.35233777	     13.54700575	    -19.72406665
      9.10000000	    -30.31386553	    -24.67172358	     36.18671827	    -73.26686928	    776.83832336	      7.44620228	     10.27972564	    -45.00000000	     40.78324529	    -45.00000000	    -45.00000000	  -2614.10534747	  -2630.78503918	    147.95630679	    179.99999979	   1802.69008405	     55.33802678	     21.43460332	     15.46643355	     15.95199475	     38.68443145	    -36.63074417	    -45.00000000	    -45.00000000	    437.64545171	  -2980.41748272	    133.91790110	   -162.87011156	      3.50435020	     30.09600864	     13.55646291	    -19.80578416
